# xmcd
#
# Track frame offsets:
#	150
#	11995
#	23765
#	36147
#	48737
#	61230
#	73875
#	85190
#	97357
#	109647
#	121212
#	133925
#	146822
#	159740
#	172595
#	185515
#	199035
#	211460
#	223687
#	236177
#	247362
#	258995
#
# Disc length: 3615 seconds
#
# Revision: 1
# Processed by: cddbd v1.4PL0 Copyright (c) Steve Scherf et al.
# Submitted via: audiograbber 1.80
#
DISCID=570e1d16
DTITLE=blind boy Fuller - V.4 (1937-38)
DYEAR=1900
DGENRE=
TTITLE0=Shaggy Like A Bear
TTITLE1=Ten O'clock Peeper
TTITLE2=Hungry Calf Blues
TTITLE3=Too Many Women Blues
TTITLE4=Oozin' You Off My Mind
TTITLE5=Shake That Shimmy
TTITLE6=Heart Ease Blues
TTITLE7=I'm Going To Move (To The Edge Of Town)
TTITLE8=Pistol Slapper Blues
TTITLE9=Mean And No Good Woman
TTITLE10=Georgia Ham Mama
TTITLE11=Piccolo Rag
TTITLE12=Funny Feeling Blues
TTITLE13=Painful Hearted Man
TTITLE14=You've Got To Move It Out
TTITLE15=Mama Let Me Lay It On You No.2
TTITLE16=Meat Shakin' Woman
TTITLE17=I'm A Good Stem Winder
TTITLE18=What's That Smells Like Fish
TTITLE19=She's A Truckin' Little Baby
TTITLE20=Jivin' Woman Blues
TTITLE21=You're Laughing Now
EXTD=
EXTT0=
EXTT1=
EXTT2=
EXTT3=
EXTT4=
EXTT5=
EXTT6=
EXTT7=
EXTT8=
EXTT9=
EXTT10=
EXTT11=
EXTT12=
EXTT13=
EXTT14=
EXTT15=
EXTT16=
EXTT17=
EXTT18=
EXTT19=
EXTT20=
EXTT21=
PLAYORDER=
